<svg width="12" height="11" viewBox="0 0 12 11" fill="none" xmlns="http://www.w3.org/2000/svg">
<path d="M2.07227 4.66016V9.92801C2.07227 10.0227 2.10989 10.1136 2.17687 10.1806C2.24385 10.2475 2.33469 10.2852 2.42941 10.2852H4.57227V7.24944C4.57227 7.10736 4.62871 6.9711 4.72917 6.87063C4.82964 6.77017 4.9659 6.71373 5.10798 6.71373H6.89369C7.03577 6.71373 7.17204 6.77017 7.2725 6.87063C7.37297 6.9711 7.42941 7.10736 7.42941 7.24944V10.2852H9.57227C9.66699 10.2852 9.75783 10.2475 9.8248 10.1806C9.89178 10.1136 9.92941 10.0227 9.92941 9.92801V4.66016" stroke="white" stroke-linecap="round" stroke-linejoin="round"/>
<path d="M11 5.64247L6.24308 1.0889C6.13147 0.971039 5.87054 0.969699 5.75692 1.0889L1 5.64247" stroke="white" stroke-linecap="round" stroke-linejoin="round"/>
<path d="M9.21401 3.9239V1.35693H8.14258V2.89711" stroke="white" stroke-linecap="round" stroke-linejoin="round"/>
</svg>
