<svg width="200" height="49" viewBox="0 0 200 49" fill="none" xmlns="http://www.w3.org/2000/svg">
<path d="M7.37654 29.6026H0.577886V7.85993C0.577886 6.6972 1.12962 5.73841 2.2331 4.98358C2.73926 4.67523 3.31918 4.50903 3.91184 4.50244H7.37654V29.6026ZM23.1886 27.4872C23.2073 29.7148 22.5612 31.8974 21.3329 33.7558C20.1046 35.6144 18.3499 37.0644 16.2932 37.9205C15.0383 38.4602 13.6921 38.7567 12.3265 38.7938H0C0.767027 35.9141 1.31876 34.1987 1.65521 33.6478C2.4205 32.5443 3.40804 31.9926 4.61786 31.9926H11.8349C12.4539 31.9988 13.0672 31.8731 13.6339 31.6239C14.1828 31.3966 14.6808 31.0622 15.0988 30.6402C15.5168 30.2181 15.8464 29.7169 16.0684 29.1659C16.3152 28.6087 16.4409 28.0052 16.4371 27.3956V7.8364C16.4371 6.68936 16.9888 5.73927 18.0923 4.98619C18.5891 4.67635 19.162 4.50984 19.7475 4.50505H23.1886V27.4872ZM25.542 7.85993C25.542 6.6972 26.0938 5.73841 27.1972 4.98358C27.6941 4.67374 28.267 4.50722 28.8524 4.50244H32.2988V27.6257C32.3088 28.2287 32.4424 28.8231 32.6911 29.3725C32.9298 29.8975 33.265 30.3729 33.6795 30.774C34.0979 31.1603 34.5801 31.4706 35.1046 31.6919C35.6579 31.9225 36.252 32.0399 36.8513 32.037H37.0344V38.8174H36.8513C35.3514 38.8276 33.8651 38.5303 32.4845 37.944C31.1504 37.3682 29.935 36.5498 28.8995 35.5305C27.8653 34.5172 27.0328 33.3165 26.4468 31.9926C25.8457 30.6148 25.5325 29.1288 25.5263 27.6257L25.542 7.85993ZM50.548 22.9373H40.656L37.0919 17.1453L59.0176 3.90625L62.5319 9.69821L51.7299 16.2354C53.1406 16.3504 54.515 16.7412 55.7751 17.3859C57.0154 17.9914 58.1306 18.8253 59.062 19.8439C60.0049 20.8544 60.7523 22.0309 61.2663 23.3138C61.8079 24.65 62.0814 26.0795 62.0717 27.5211C62.0801 29.0302 61.7747 30.5243 61.1748 31.9089C60.5956 33.2469 59.7699 34.4639 58.7404 35.4965C57.7138 36.533 56.4953 37.3598 55.1528 37.9309C53.7604 38.5284 52.2592 38.8302 50.7441 38.8174H36.1505L36.2656 32.0187H50.7441C51.3432 32.0208 51.937 31.9044 52.4908 31.6762C53.0394 31.4424 53.5389 31.1072 53.963 30.6877C54.3751 30.2762 54.7093 29.7935 54.9488 29.2626C55.1941 28.713 55.3199 28.1176 55.3175 27.5159C55.3217 26.9056 55.1959 26.301 54.9488 25.743C54.7177 25.1944 54.383 24.6955 53.963 24.2735C53.5428 23.8547 53.0421 23.5255 52.4908 23.306C51.9407 23.0628 51.3455 22.9381 50.7441 22.9399L50.548 22.9373Z" fill="white"/>
<path d="M76.9002 37.8973C76.9284 38.4707 77.0685 39.0332 77.3133 39.5525C77.5486 40.0736 77.8752 40.5482 78.2782 40.9541C78.6804 41.3557 79.1563 41.6763 79.6798 41.898C80.2252 42.13 80.8128 42.2476 81.4056 42.2432H83.3589C83.9388 42.2314 84.5099 42.0978 85.035 41.851C85.5535 41.6329 86.0232 41.3125 86.4157 40.9096C87.2163 40.0747 87.6959 38.9837 87.7701 37.8293V11.7669C87.7783 11.1719 87.9529 10.5912 88.2748 10.0908C89.0402 8.9873 90.0286 8.43556 91.2401 8.43556H94.574V38.2947H94.527C94.4768 39.6937 94.1486 41.0688 93.5621 42.3399C92.9988 43.5812 92.2126 44.7085 91.2427 45.666C90.2666 46.6385 89.1218 47.4251 87.8643 47.988C86.5872 48.5855 85.2063 48.9291 83.7982 49H81.4082C78.4879 48.9974 75.6801 47.8743 73.5636 45.8622C72.543 44.8664 71.7172 43.6887 71.1291 42.3896C70.5086 41.0466 70.1645 39.5928 70.1172 38.1143V32.2805C70.1248 31.6857 70.2997 31.1046 70.6219 30.6044C71.3872 29.5009 72.3756 28.9492 73.5871 28.9492H76.8975L76.9002 37.8973ZM96.7104 7.86029C96.7104 6.69754 97.2621 5.73874 98.3656 4.98394C98.8624 4.67408 99.4353 4.50759 100.021 4.5028H103.467V27.6261C103.477 28.2288 103.61 28.8229 103.857 29.3728C104.096 29.8979 104.431 30.3733 104.845 30.7744C105.264 31.1598 105.746 31.4705 106.27 31.6922C106.824 31.9226 107.418 32.04 108.017 32.0374H108.203V38.8177H108.017C106.517 38.8279 105.031 38.5306 103.65 37.9443C102.317 37.3672 101.102 36.549 100.065 35.5308C99.0374 34.516 98.2113 33.3155 97.6308 31.9929C97.0299 30.6151 96.7167 29.1291 96.7104 27.6261V7.86029ZM115.924 10.8386C116.454 10.834 116.978 10.9437 117.462 11.1603C117.929 11.3681 118.351 11.6647 118.704 12.0336C119.074 12.3892 119.364 12.8199 119.554 13.2966C119.767 13.7921 119.878 14.3259 119.878 14.8655C119.878 15.4051 119.767 15.939 119.554 16.4344C119.356 16.9069 119.067 17.336 118.704 17.6974C118.346 18.0542 117.925 18.3422 117.462 18.5473C116.975 18.7499 116.452 18.8521 115.924 18.848C115.387 18.8508 114.854 18.7486 114.356 18.5473C113.888 18.3393 113.461 18.0517 113.093 17.6974C112.738 17.328 112.45 16.9009 112.24 16.4344C111.84 15.4268 111.84 14.3042 112.24 13.2966C112.442 12.8259 112.732 12.3975 113.093 12.0336C113.456 11.6671 113.884 11.371 114.356 11.1603C114.85 10.9447 115.385 10.8351 115.924 10.8386ZM107.295 32.006H107.716C108.284 32.0091 108.847 31.8998 109.372 31.6843C109.888 31.4814 110.363 31.1854 110.773 30.811C111.185 30.4282 111.528 29.9771 111.785 29.4774C112.047 28.962 112.203 28.399 112.243 27.8222V25.3851C112.252 24.79 112.428 24.2094 112.75 23.709C113.515 22.6055 114.504 22.0538 115.715 22.0538H119.023V27.5241C119.019 28.1313 119.136 28.7332 119.368 29.2944C119.603 29.8291 119.929 30.3183 120.333 30.7404C120.751 31.1564 121.242 31.4914 121.782 31.7288C122.343 31.961 122.945 32.0781 123.552 32.074V38.8177L122.909 38.7942C121.638 38.7408 120.388 38.4527 119.222 37.9443C117.887 37.3806 116.671 36.5697 115.637 35.5544C114.61 36.5668 113.402 37.3777 112.075 37.9443C110.695 38.5188 109.212 38.808 107.716 38.7942H107.303L107.295 32.006ZM144.604 1.83825L136.101 6.87187L135.23 5.05715L143.663 0L144.604 1.83825ZM153.707 38.8177H153.524C152.016 38.8295 150.522 38.5322 149.133 37.9443C147.807 37.3777 146.599 36.5668 145.572 35.5544C144.537 36.5702 143.32 37.3811 141.984 37.9443C140.612 38.5322 139.133 38.8295 137.641 38.8177H123.047L123.162 32.0191H137.641C138.24 32.0214 138.834 31.905 139.388 31.6765C139.936 31.4433 140.436 31.1078 140.86 30.6881C141.272 30.276 141.607 29.7933 141.848 29.263C142.093 28.7133 142.217 28.1179 142.214 27.5163C142.219 26.907 142.094 26.3035 141.848 25.746C141.615 25.1978 141.28 24.699 140.86 24.2764C140.44 23.857 139.939 23.5278 139.388 23.3089C138.838 23.0655 138.242 22.9407 137.641 22.9428H127.553L123.991 17.1509L145.914 3.91184L149.431 9.70377L138.629 16.2409C140.04 16.3556 141.415 16.7465 142.675 17.3915C143.915 17.997 145.03 18.8309 145.961 19.8495C146.905 20.8598 147.653 22.0364 148.168 23.3194C148.708 24.6561 148.98 26.0853 148.971 27.5267C148.967 28.1339 149.084 28.7358 149.316 29.297C149.554 29.8359 149.889 30.3262 150.305 30.743C150.726 31.1483 151.217 31.4752 151.753 31.7079C152.314 31.9401 152.916 32.0572 153.524 32.053H153.707V38.8177ZM152.954 31.9929H153.367C153.934 31.996 154.497 31.8867 155.022 31.6713C155.539 31.4684 156.014 31.1724 156.423 30.7979C156.835 30.4151 157.178 29.964 157.435 29.4643C157.697 28.9487 157.854 28.386 157.896 27.8091V25.3721C157.904 24.7771 158.079 24.1965 158.4 23.6959C159.167 22.5925 160.156 22.0407 161.366 22.0407H164.668V27.511C164.664 28.1182 164.781 28.7201 165.013 29.2813C165.248 29.816 165.574 30.3053 165.978 30.7273C166.397 31.1428 166.887 31.4778 167.427 31.7157C167.988 31.9477 168.59 32.0651 169.197 32.0609V38.8177L168.554 38.7942C167.279 38.7432 166.024 38.4548 164.854 37.9443C163.518 37.3811 162.301 36.5702 161.266 35.5544C160.239 36.5668 159.031 37.3777 157.705 37.9443C156.329 38.517 154.852 38.8062 153.361 38.7942H152.954V31.9929ZM156.24 40.771C156.771 40.7666 157.296 40.8764 157.781 41.0926C158.242 41.2984 158.662 41.5863 159.02 41.9425C159.761 42.7073 160.181 43.7276 160.192 44.7927C160.196 45.3232 160.086 45.8483 159.87 46.3328C159.681 46.8103 159.391 47.2412 159.02 47.5958C158.658 47.9661 158.225 48.2605 157.748 48.4621C157.271 48.6637 156.758 48.7683 156.24 48.7699C155.18 48.767 154.164 48.345 153.414 47.5958C152.689 46.8406 152.278 45.8389 152.263 44.7927C152.259 44.253 152.369 43.7182 152.585 43.2238C152.776 42.745 153.058 42.3072 153.414 41.9346C153.782 41.5803 154.21 41.2927 154.677 41.0848C155.169 40.8733 155.7 40.7666 156.235 40.771H156.24ZM165.57 40.771C166.101 40.7666 166.626 40.8764 167.11 41.0926C167.573 41.2971 167.993 41.5853 168.35 41.9425C169.093 42.7063 169.514 43.7271 169.524 44.7927C169.528 45.3232 169.419 45.8483 169.202 46.3328C169.012 46.8098 168.721 47.2405 168.35 47.5958C168 47.9627 167.578 48.2529 167.11 48.4483C166.626 48.6645 166.101 48.7743 165.57 48.7699C165.031 48.7733 164.496 48.6637 164.001 48.4483C163.529 48.2485 163.1 47.959 162.738 47.5958C162.377 47.2329 162.089 46.804 161.889 46.3328C161.687 45.8446 161.586 45.3209 161.59 44.7927C161.586 44.2553 161.687 43.7222 161.889 43.2238C162.093 42.7471 162.381 42.3104 162.738 41.9346C163.108 41.5814 163.535 41.294 164.001 41.0848C164.495 40.8727 165.028 40.7658 165.565 40.771H165.57ZM168.345 38.8177V32.0191H199.417V35.4916C199.409 36.0865 199.234 36.6672 198.912 37.1677C198.147 38.2678 197.159 38.8177 195.947 38.8177H168.345Z" fill="#05AB6B"/>
</svg>
